# xmcd
#
# Track frame offsets:
# 150
# 16207
# 46282
# 62991
# 90737
# 109741
# 124866
# 174295
# 189121
#
# Disc length: 2954 seconds
#
#
# Revision: 1
# Processed by: cddbd v1.5.2PL0 Copyright (c) Steve Scherf et al.
# Submitted via: FreeRIP 2.35 
#
DISCID=6c0b8809
DTITLE=Queens Of The Stone Age - Live In Amsterdam
DYEAR=2007
DGENRE=Rock
TTITLE0=Monsters In The Parasol
TTITLE1=Misfit Love
TTITLE2=If Only
TTITLE3=I Think I Lost My Headache
TTITLE4=Into The Hollow
TTITLE5=Go With The Flow
TTITLE6=Regular John
TTITLE7=Avon
TTITLE8=Song For The Dead
EXTD=
EXTT0=
EXTT1=
EXTT2=
EXTT3=
EXTT4=
EXTT5=
EXTT6=
EXTT7=
EXTT8=
PLAYORDER=
